# xmcd
#
# Track frame offsets:
#	225
#	15017
#	37797
#	53224
#	70687
#	83950
#	102511
#	113879
#	137093
#	148876
#
# Disc length: 2233 seconds
#
# Revision: 1
# Processed by: cddbd v1.5.2PL0 Copyright (c) Steve Scherf et al.
# Submitted via: audiograbber 1.83.01
#
DISCID=8008b60a
DTITLE=New Wine - Lord, Do A New Thing
DYEAR=1900
DGENRE=Gospel
TTITLE0=Lord, Do A New Thing
TTITLE1=I Know Where There's Water
TTITLE2=Singing With The Saints
TTITLE3=He Still Speaks
TTITLE4=Shoutin' Time
TTITLE5=A Few Good Men
TTITLE6=Walking On The King's Highway
TTITLE7=Loving God, Loving Each Other
TTITLE8=Forgiven By The Lord
TTITLE9=Once For All
EXTD=
EXTT0=
EXTT1=
EXTT2=
EXTT3=
EXTT4=
EXTT5=
EXTT6=
EXTT7=
EXTT8=
EXTT9=
PLAYORDER=
